<svg width="26" height="26" viewBox="0 0 26 26" fill="none" xmlns="http://www.w3.org/2000/svg">
<path d="M11.9168 22.75L8.47725 19.6625C7.17725 18.4889 6.06214 17.4417 5.13192 16.5208C4.20169 15.6 3.43433 14.7333 2.82983 13.9208C2.22533 13.1083 1.78297 12.3229 1.50275 11.5646C1.22253 10.8063 1.08278 10.0118 1.0835 9.18125C1.0835 7.48403 1.65225 6.07136 2.78975 4.94325C3.92725 3.81514 5.34461 3.25072 7.04183 3.25C7.98072 3.25 8.87447 3.44861 9.72308 3.84583C10.5717 4.24306 11.3029 4.80278 11.9168 5.525C12.5307 4.80278 13.262 4.24306 14.1106 3.84583C14.9592 3.44861 15.8529 3.25 16.7918 3.25C18.2543 3.25 19.4821 3.66094 20.4752 4.48283C21.4682 5.30472 22.1453 6.33822 22.5064 7.58333H20.2043C19.8793 6.86111 19.4009 6.31944 18.7689 5.95833C18.137 5.59722 17.4779 5.41667 16.7918 5.41667C15.871 5.41667 15.0766 5.66511 14.4085 6.162C13.7404 6.65889 13.1175 7.31322 12.5397 8.125H11.2939C10.7342 7.3125 10.0976 6.65817 9.384 6.162C8.67044 5.66583 7.88972 5.41739 7.04183 5.41667C6.01267 5.41667 5.12325 5.77344 4.37358 6.487C3.62392 7.20056 3.24944 8.09828 3.25017 9.18017C3.25017 9.776 3.37655 10.3809 3.62933 10.9948C3.88211 11.6086 4.3335 12.3175 4.9835 13.1213C5.6335 13.9244 6.51822 14.8633 7.63767 15.938C8.75711 17.0127 10.1835 18.3083 11.9168 19.825C12.3863 19.4097 12.937 18.9313 13.5689 18.3896C14.2009 17.8479 14.7064 17.3965 15.0856 17.0354L15.3293 17.2792L15.858 17.8078L16.3856 18.3354L16.6293 18.5792C16.2321 18.9403 15.7266 19.3873 15.1127 19.9203C14.4988 20.4533 13.9571 20.9271 13.4877 21.3417L11.9168 22.75ZM19.5002 18.4167V15.1667H16.2502V13H19.5002V9.75H21.6668V13H24.9168V15.1667H21.6668V18.4167H19.5002Z" fill="#012B42"/>
</svg>
