<svg width="26" height="26" viewBox="0 0 26 26" fill="none" xmlns="http://www.w3.org/2000/svg">
<path d="M24.8526 6.17916C24.4948 5.89732 23.5354 5.67112 22.8173 5.50264L21.8454 5.37264V3.02328L22.343 3.01548C22.8095 3.25208 23.4813 3.64 23.5161 4.16H25.3902C25.3554 3.12 24.5655 2.46376 23.8625 1.94272C23.396 1.59692 22.8854 1.41232 21.8454 1.30052V0H20.8054V1.26048C19.7654 1.36032 19.4295 1.61928 18.9599 2.04204C18.3458 2.5948 18.0723 3.28848 18.0723 4.1236C18.0723 5.0388 18.3338 5.71116 18.9625 6.14172C19.314 6.3856 19.7654 6.61232 20.8054 6.8224V9.3678C20.2854 9.27576 20.2843 9.29916 20.1008 9.08128C19.924 8.87016 19.8756 8.32 19.8153 8.32H17.9558C17.9558 9.36 18.2371 9.85816 18.9412 10.413C19.4487 10.8129 19.7654 10.8836 20.8054 10.9886V11.96H21.8454V11.0053C22.8854 10.9049 23.7689 10.6402 24.2769 10.2066C24.9363 9.6434 25.4755 8.93568 25.4755 8.08392C25.475 7.25296 25.4084 6.61856 24.8526 6.17916ZM20.2948 4.73044C19.9921 4.5656 19.8756 4.316 19.8756 3.98268C19.8756 3.61972 19.976 3.3358 20.2828 3.133C20.4445 3.0264 20.2854 2.94892 20.8054 2.89744V4.94624C20.2854 4.8672 20.4092 4.79544 20.2948 4.73044ZM22.5531 9.31684C22.4657 9.347 21.8454 9.37092 21.8454 9.39224V7.2254C22.8854 7.31484 22.8053 7.41104 22.978 7.51556C23.2489 7.68404 23.3851 7.92428 23.3851 8.2316C23.3851 8.75992 23.1069 9.12236 22.5531 9.31684ZM20.0358 15.6H19.7482L16.5534 9.815C16.4156 9.56488 16.0682 9.36 15.7822 9.36H6.08887C5.80287 9.36 5.45551 9.56488 5.31771 9.815L2.12283 15.6H1.83579C1.26327 15.6 0.525391 16.068 0.525391 16.64V21.84C0.525391 22.412 1.26327 22.88 1.83579 22.88H2.60539V24.44C2.60539 25.298 3.57779 26 4.43579 26H4.95579C5.81379 26 6.24539 25.298 6.24539 24.44V22.88H15.0854V24.44C15.0854 25.298 16.0573 26 16.9158 26H17.4358C18.2938 26 18.7254 25.298 18.7254 24.44V22.88H20.0358C20.6078 22.88 20.8054 22.412 20.8054 21.84V16.64C20.8054 16.068 20.6073 15.6 20.0358 15.6ZM3.65579 19.76C3.31101 19.76 2.98035 19.623 2.73655 19.3792C2.49275 19.1354 2.35579 18.8048 2.35579 18.46C2.35579 18.1152 2.49275 17.7846 2.73655 17.5408C2.98035 17.297 3.31101 17.16 3.65579 17.16C4.00057 17.16 4.33123 17.297 4.57503 17.5408C4.81883 17.7846 4.95579 18.1152 4.95579 18.46C4.95579 18.8048 4.81883 19.1354 4.57503 19.3792C4.33123 19.623 4.00057 19.76 3.65579 19.76ZM4.69579 15.6L6.80335 11.3854C6.93075 11.129 7.26979 10.92 7.55579 10.92H14.3158C14.6018 10.92 14.9403 11.129 15.0682 11.3854L17.1758 15.6H4.69579ZM18.2158 19.76C17.871 19.76 17.5403 19.623 17.2966 19.3792C17.0528 19.1354 16.9158 18.8048 16.9158 18.46C16.9158 18.1152 17.0528 17.7846 17.2966 17.5408C17.5403 17.297 17.871 17.16 18.2158 17.16C18.5606 17.16 18.8912 17.297 19.135 17.5408C19.3788 17.7846 19.5158 18.1152 19.5158 18.46C19.5158 18.8048 19.3788 19.1354 19.135 19.3792C18.8912 19.623 18.5606 19.76 18.2158 19.76Z" fill="#00788C"/>
</svg>
